<svg width="135" height="45" viewBox="0 0 135 45" fill="none" xmlns="http://www.w3.org/2000/svg">
<path d="M0 22.5C0 10.0736 10.0736 0 22.5 0H112.5C124.926 0 135 10.0736 135 22.5V22.5C135 34.9264 124.926 45 112.5 45H22.5C10.0736 45 0 34.9264 0 22.5V22.5Z" fill="url(#paint0_linear_1_13)"/>
<path d="M22.2074 15.7713V13.8182H35.8438V15.7713H30.1264V32H27.9247V15.7713H22.2074ZM53.8258 22.9091C53.8258 24.8267 53.4796 26.4839 52.7871 27.8807C52.0946 29.2775 51.1447 30.3546 49.9373 31.1122C48.7299 31.8698 47.3509 32.2486 45.8002 32.2486C44.2496 32.2486 42.8706 31.8698 41.6632 31.1122C40.4558 30.3546 39.5059 29.2775 38.8134 27.8807C38.1209 26.4839 37.7747 24.8267 37.7747 22.9091C37.7747 20.9915 38.1209 19.3343 38.8134 17.9375C39.5059 16.5407 40.4558 15.4635 41.6632 14.706C42.8706 13.9484 44.2496 13.5696 45.8002 13.5696C47.3509 13.5696 48.7299 13.9484 49.9373 14.706C51.1447 15.4635 52.0946 16.5407 52.7871 17.9375C53.4796 19.3343 53.8258 20.9915 53.8258 22.9091ZM51.6951 22.9091C51.6951 21.3348 51.4318 20.006 50.905 18.9229C50.3842 17.8398 49.6769 17.0201 48.7832 16.4638C47.8954 15.9074 46.9011 15.6293 45.8002 15.6293C44.6994 15.6293 43.7021 15.9074 42.8084 16.4638C41.9206 17.0201 41.2134 17.8398 40.6866 18.9229C40.1658 20.006 39.9054 21.3348 39.9054 22.9091C39.9054 24.4834 40.1658 25.8121 40.6866 26.8952C41.2134 27.9783 41.9206 28.7981 42.8084 29.3544C43.7021 29.9107 44.6994 30.1889 45.8002 30.1889C46.9011 30.1889 47.8954 29.9107 48.7832 29.3544C49.6769 28.7981 50.3842 27.9783 50.905 26.8952C51.4318 25.8121 51.6951 24.4834 51.6951 22.9091ZM76.4909 13.8182H78.6926V25.8565C78.6926 27.0994 78.3997 28.2092 77.8137 29.1857C77.2337 30.1564 76.414 30.9228 75.3546 31.4851C74.2952 32.0414 73.0523 32.3196 71.6259 32.3196C70.1995 32.3196 68.9566 32.0414 67.8972 31.4851C66.8378 30.9228 66.0151 30.1564 65.4292 29.1857C64.8491 28.2092 64.5591 27.0994 64.5591 25.8565V13.8182H66.7608V25.679C66.7608 26.5668 66.9561 27.3569 67.3468 28.0494C67.7374 28.7359 68.2937 29.2775 69.0158 29.674C69.7438 30.0646 70.6138 30.2599 71.6259 30.2599C72.638 30.2599 73.508 30.0646 74.236 29.674C74.964 29.2775 75.5203 28.7359 75.905 28.0494C76.2956 27.3569 76.4909 26.5668 76.4909 25.679V13.8182ZM83.0894 32V13.8182H89.2329C90.6592 13.8182 91.8252 14.0756 92.7307 14.5906C93.6422 15.0996 94.3169 15.7891 94.7549 16.6591C95.1929 17.5291 95.4118 18.4998 95.4118 19.571C95.4118 20.6423 95.1929 21.6159 94.7549 22.4918C94.3228 23.3678 93.654 24.0662 92.7485 24.587C91.843 25.1019 90.6829 25.3594 89.2684 25.3594H84.865V23.4062H89.1974C90.1739 23.4062 90.9581 23.2376 91.55 22.9002C92.1418 22.5629 92.5709 22.1071 92.8373 21.533C93.1095 20.953 93.2456 20.299 93.2456 19.571C93.2456 18.843 93.1095 18.192 92.8373 17.6179C92.5709 17.0438 92.1389 16.594 91.5411 16.2685C90.9433 15.937 90.1502 15.7713 89.1618 15.7713H85.2911V32H83.0894Z" fill="white"/>
<path d="M100 32C105.167 31.6667 114.8 27.4 112 13" stroke="black"/>
<line x1="112.437" y1="13.2428" x2="107.437" y2="22.2428" stroke="black"/>
<line x1="112.4" y1="13.7" x2="118.4" y2="21.7" stroke="black"/>
<defs>
<linearGradient id="paint0_linear_1_13" x1="0" y1="0" x2="138.606" y2="19.9656" gradientUnits="userSpaceOnUse">
<stop stop-color="#EC9C3E"/>
<stop offset="1" stop-color="#EC3EA6"/>
</linearGradient>
</defs>
</svg>
